<?xml version="1.0" encoding="UTF-8"?>
<svg id="Layer_2" xmlns="http://www.w3.org/2000/svg" version="1.1" viewBox="0 0 851.7 329.5">
  <!-- Generator: Adobe Illustrator 29.1.0, SVG Export Plug-In . SVG Version: 2.1.0 Build 142)  -->
  <defs>
    <style>
      .st0 {
        fill: #545557;
      }

      .st1 {
        fill: #ba5c49;
      }

      .st2 {
        fill: #cf644b;
      }

      .st3 {
        fill: #58286e;
      }

      .st4 {
        fill: #257988;
      }
    </style>
  </defs>
  <g id="Layer_1-2">
    <g>
      <g>
        <path class="st3" d="M251.9,140.1v34.3c0,4.9.4,9.8,1.1,14.5-.4.1-.7.2-1.1.3h0c-6.6,2.1-13.4,3.5-20.5,4.1-.3,0-.5,0-.8,0-2.6.2-5.1.3-7.8.3h0c-2.6,0-5.2-.1-7.8-.3-.3,0-.5,0-.8,0-2.3-.2-4.6-.5-6.9-.8h0c-4.6-.8-9.2-1.8-13.6-3.2h0c-.4-.2-.7-.3-1.1-.4.7-4.7,1.1-9.6,1.1-14.5v-38.8l-67.8,38.8v58.1h0c0,53.5,43.4,96.9,96.9,96.9s96.9-43.4,96.9-96.9v-58.1l-67.8-38.8v4.4h0Z"/>
        <path class="st2" d="M174.4,135.6h-48.4v-38.8c0-2.2,0-4.4.2-6.6,0-.5,0-1,.1-1.6.2-2.2.4-4.3.7-6.4h0c-9.5-3.1-19.6-4.8-30.2-4.8-53.5,0-96.9,43.4-96.9,96.9h0v38.8h67.8v38.8c0,2.2,0,4.4-.2,6.6,0,.5,0,1-.1,1.5-.2,2.2-.4,4.3-.7,6.4,9.5,3.1,19.6,4.8,30.2,4.8,53.5,0,96.9-43.4,96.9-96.9v-38.8h-19.4,0Z"/>
        <path class="st1" d="M192.7,188.9h0c.3-2.1.5-4.3.7-6.4,0-.5,0-1,.1-1.5.1-2.2.2-4.4.2-6.6v-38.8l-67.8,38.8v58.1c0,11.4,2,22.2,5.6,32.4,32.1-12.3,55.9-41.1,61.2-75.9"/>
        <path class="st4" d="M251.9,174.4v-38.8h67.8v-38.8c0-2.2-.1-4.4-.2-6.6,0-.5,0-1-.1-1.6-.2-2.1-.4-4.2-.7-6.3C311.6,35.8,271.4,0,222.8,0s-88.8,35.8-95.8,82.4c-.3,2.1-.5,4.2-.7,6.3,0,.5,0,1-.1,1.6-.2,2.2-.2,4.3-.2,6.6h0v38.8h67.8v38.8c0,4.9-.4,9.8-1.1,14.5,9.5,3.1,19.6,4.8,30.1,4.8s20.7-1.7,30.1-4.8c-.7-4.7-1.1-9.6-1.1-14.5"/>
      </g>
      <g>
        <g>
          <g>
            <path class="st0" d="M349,316.6h9.1v3.4h-9.1v-3.4Z"/>
            <path class="st0" d="M373.4,302h12c2.4,0,4.3.7,5.7,2,1.5,1.3,2.2,3.2,2.2,5.6s-.6,3.9-2,5.5c-1.3,1.5-3.3,2.3-6,2.3h-8.4v11.3h-3.6v-26.7h0ZM387.4,305.6c-.8-.4-1.9-.6-3.3-.6h-7.1v9.3h7.1c1.6,0,2.9-.4,3.9-1,1-.7,1.5-1.9,1.5-3.7s-.7-3.3-2.2-4Z"/>
            <path class="st0" d="M419.9,305.8c1.8,2.4,2.7,5.4,2.7,9.1s-1,7.3-3,10c-2.4,3.1-5.8,4.7-10.2,4.7s-7.4-1.4-9.7-4.1c-2.1-2.6-3.1-5.9-3.1-9.9s.9-6.7,2.7-9.3c2.3-3.3,5.7-5,10.2-5s8.2,1.5,10.5,4.5h0ZM416.7,322.8c1.4-2.3,2.1-4.9,2.1-7.9s-.8-5.7-2.5-7.6c-1.6-1.9-3.9-2.9-6.7-2.9s-5,1-6.8,2.9-2.6,4.7-2.6,8.4.8,5.5,2.2,7.5,3.9,3,7.3,3,5.5-1.1,6.9-3.4h0Z"/>
            <path class="st0" d="M426.9,302h3.6v23.5h13.4v3.2h-17v-26.7h0Z"/>
            <path class="st0" d="M442.8,302h4.2l7.7,12.9,7.7-12.9h4.3l-10.1,16v10.8h-3.6v-10.8l-10.1-16h0Z"/>
            <path class="st0" d="M489.2,302v3.2h-9v23.5h-3.7v-23.5h-9v-3.2h21.7Z"/>
            <path class="st0" d="M492.9,302h19.4v3.3h-15.9v8.1h14.7v3.1h-14.7v9.1h16.1v3.2h-19.7v-26.7h0Z"/>
            <path class="st0" d="M536.3,303.9c1.8,1.8,2.9,3.8,3.1,6.1h-3.5c-.4-1.7-1.2-3.1-2.3-4.1-1.2-1-2.8-1.5-4.9-1.5s-4.7.9-6.3,2.8-2.4,4.7-2.4,8.5.7,5.7,2.2,7.6c1.4,2,3.6,2.9,6.4,2.9s4.6-1,6-3.1c.7-1.1,1.3-2.5,1.6-4.3h3.5c-.3,2.8-1.3,5.2-3.1,7.1-2.1,2.3-4.9,3.4-8.5,3.4s-5.7-.9-7.7-2.8c-2.8-2.5-4.1-6.3-4.1-11.5s1-7.2,3.1-9.7c2.2-2.7,5.3-4.1,9.2-4.1s5.9.9,7.8,2.7h0Z"/>
            <path class="st0" d="M544.4,302h3.7v11h13.7v-11h3.7v26.7h-3.7v-12.5h-13.7v12.5h-3.7v-26.7Z"/>
            <path class="st0" d="M571.2,302h4.3l13.3,21.6v-21.6h3.5v26.7h-4.1l-13.5-21.6v21.6h-3.5v-26.7Z"/>
            <path class="st0" d="M598.9,302h3.7v26.7h-3.7v-26.7Z"/>
            <path class="st0" d="M627.4,303.9c1.8,1.8,2.9,3.8,3.1,6.1h-3.5c-.4-1.7-1.2-3.1-2.3-4.1-1.2-1-2.8-1.5-4.9-1.5s-4.7.9-6.3,2.8-2.4,4.7-2.4,8.5.7,5.7,2.2,7.6c1.4,2,3.6,2.9,6.4,2.9s4.6-1,6-3.1c.7-1.1,1.3-2.5,1.6-4.3h3.5c-.3,2.8-1.3,5.2-3.1,7.1-2.1,2.3-4.9,3.4-8.5,3.4s-5.7-.9-7.7-2.8c-2.8-2.5-4.1-6.3-4.1-11.5s1-7.2,3.1-9.7c2.2-2.7,5.3-4.1,9.2-4.1s5.9.9,7.8,2.7h0Z"/>
            <path class="st0" d="M667.8,305.8c1.8,2.4,2.7,5.4,2.7,9.1s-1,7.3-3,10c-2.4,3.1-5.8,4.7-10.2,4.7s-7.3-1.4-9.7-4.1c-2.1-2.6-3.2-5.9-3.2-9.9s.9-6.7,2.7-9.3c2.3-3.3,5.7-5,10.2-5s8.2,1.5,10.5,4.5h0ZM664.6,322.8c1.4-2.3,2.1-4.9,2.1-7.9s-.8-5.7-2.5-7.6c-1.6-1.9-3.9-2.9-6.7-2.9s-5,1-6.8,2.9-2.6,4.7-2.6,8.4.8,5.5,2.2,7.5,3.9,3,7.3,3,5.5-1.1,6.9-3.4Z"/>
            <path class="st0" d="M675.1,302h18.5v3.3h-14.9v8.1h13.1v3.2h-13.1v12.2h-3.6v-26.7h0Z"/>
            <path class="st0" d="M708.2,302h19.4v3.3h-15.9v8.1h14.7v3.1h-14.7v9.1h16.1v3.2h-19.7v-26.7h0Z"/>
            <path class="st0" d="M750.5,302.7c2.6,1.4,4.2,3.8,4.8,7.3h-3.6c-.4-2-1.3-3.4-2.7-4.3-1.3-.9-3-1.3-5.1-1.3s-4.5.9-6.1,2.8-2.5,4.6-2.5,8.3.7,5.8,2,7.8,3.6,3,6.7,3,4.3-.7,5.9-2.1c1.5-1.4,2.3-3.7,2.4-6.8h-8.4v-3h11.7v14.3h-2.3l-.9-3.4c-1.2,1.4-2.3,2.3-3.2,2.8-1.6.9-3.5,1.4-6,1.4s-5.8-1-8-3.1c-2.5-2.6-3.7-6.1-3.7-10.6s1.2-8,3.6-10.7c2.3-2.5,5.2-3.8,8.8-3.8s4.6.5,6.4,1.5h0Z"/>
            <path class="st0" d="M759.6,302h4.2l7.7,12.9,7.7-12.9h4.3l-10.1,16v10.8h-3.6v-10.8l-10.1-16h0Z"/>
            <path class="st0" d="M786.9,302h12c2.4,0,4.3.7,5.7,2,1.5,1.3,2.2,3.2,2.2,5.6s-.7,3.9-2,5.5c-1.3,1.5-3.3,2.3-6,2.3h-8.3v11.3h-3.6v-26.7h0ZM800.9,305.6c-.8-.4-1.9-.6-3.3-.6h-7.2v9.3h7.2c1.6,0,2.9-.4,3.9-1s1.5-1.9,1.5-3.7-.7-3.3-2.2-4Z"/>
            <path class="st0" d="M830.8,302v3.2h-9v23.5h-3.7v-23.5h-9v-3.2h21.7Z"/>
            <path class="st0" d="M842.6,316.6h9.1v3.4h-9.1v-3.4Z"/>
          </g>
          <g>
            <path class="st0" d="M384.6,92.4c-9.3,0-17.1-2-23.2-5.9-6.1-3.9-10.4-9.3-12.9-16l19.3-11.2c3.3,7.8,9.1,11.7,17.4,11.7s10.3-2,10.3-5.9-2-4.7-6-6.2c-1.7-.7-5.4-1.9-11.1-3.5-8.1-2.3-14.5-5.7-19.2-9.9-4.7-4.2-7.1-10.2-7.1-17.7s2.9-14.8,8.8-19.8c5.8-5,13.1-7.6,21.9-7.6s14,1.7,19.7,5.2c5.7,3.5,10.1,8.4,13.1,15l-18.9,11.1c-2.8-6.6-7.4-9.8-13.8-9.8s-4.7.5-6.1,1.6c-1.4,1.1-2.1,2.5-2.1,4.2s1,3.6,3.1,4.9c2.1,1.3,6.1,2.9,12,4.7,4.2,1.5,7.6,2.8,10.3,3.7,2.6,1,5.5,2.5,8.6,4.5s5.4,4.7,6.9,7.9,2.3,7,2.3,11.4c0,8.7-3.1,15.4-9.2,20.3-6.1,4.9-14.2,7.3-24.3,7.3h0Z"/>
            <path class="st0" d="M609.5,2.3v21.8h-21.8v66.5h-22.6V24.1h-21.8V2.3h66.2Z"/>
            <path class="st0" d="M635,69.4h34.2v21.2h-56.8V2.3h56.1v21.1h-33.5v12.2h30.4v20.8h-30.4v13h0Z"/>
            <path class="st0" d="M716.6,92.4c-13.3,0-24.3-4.4-33-13.2-8.7-8.8-13-19.7-13-32.8s4.3-24.1,13-32.8c8.7-8.8,19.7-13.2,33-13.2s15.4,1.9,22.2,5.7c6.8,3.8,12.2,8.9,16,15.3l-19.5,11.2c-1.7-3.1-4.2-5.6-7.5-7.4-3.3-1.8-7-2.7-11.2-2.7-7.1,0-12.8,2.2-17.1,6.6s-6.5,10.2-6.5,17.3,2.2,12.9,6.5,17.3c4.3,4.4,10,6.6,17.1,6.6s7.8-.9,11.2-2.7c3.3-1.8,5.8-4.3,7.5-7.5l19.5,11.3c-3.9,6.5-9.2,11.6-16,15.3-6.8,3.7-14.2,5.6-22.3,5.6h0Z"/>
            <path class="st0" d="M805,2.3h22.5v88.3h-22.5v-33.9h-24.8v33.9h-22.6V2.3h22.6v32.7h24.8V2.3Z"/>
          </g>
          <g>
            <path class="st0" d="M360.9,175.3h32.9v11.7h-45.1v-74.3h44.6v11.7h-32.4v19.3h29.7v11.6h-29.7v20.1Z"/>
            <path class="st0" d="M415.6,175.3h30.2v11.7h-42.5v-74.3h12.2v62.6h0Z"/>
            <path class="st0" d="M476.4,188.3c-7.1,0-13.2-1.6-18.2-4.9-5-3.2-8.5-7.7-10.5-13.4l10.5-6.1c3,8.4,9.1,12.5,18.5,12.5s8-.9,10.4-2.7c2.3-1.8,3.5-4.1,3.5-7s-1.2-5.3-3.7-6.9-6.9-3.3-13.2-5.2c-3.5-1.3-6.3-2.3-8.5-3.2-2.2-.8-4.6-2.1-7-3.7-2.4-1.7-4.3-3.7-5.5-6.2-1.2-2.5-1.8-5.4-1.8-8.7,0-6.6,2.3-11.8,7-15.7,4.7-3.9,10.3-5.8,16.9-5.8s11.1,1.4,15.6,4.3,7.9,6.9,10.3,12l-10.3,5.9c-3.1-6.9-8.3-10.4-15.6-10.4s-6.4.8-8.5,2.5c-2.1,1.7-3.2,3.9-3.2,6.7s1.1,4.8,3.2,6.4,6.1,3.2,11.8,4.9c2.8,1.1,4.8,1.8,6.1,2.3s3.1,1.2,5.5,2.1c2.4.9,4.2,1.9,5.4,2.9,1.2,1,2.5,2.3,3.8,3.8,1.4,1.5,2.3,3.2,2.9,5.2.6,1.9.8,4.1.8,6.6,0,6.7-2.4,12-7.3,16-4.9,3.9-11.2,5.9-19,5.9h0Z"/>
            <path class="st0" d="M523.3,175.3h32.9v11.7h-45.1v-74.3h44.6v11.7h-32.4v19.3h29.7v11.6h-29.7v20.1Z"/>
            <path class="st0" d="M580.7,186.9l-20.2-74.3h12.8l15.7,58.1,16.9-58.1h11.2l16.8,58.1,15.6-58.1h12l-20.2,74.3h-14.1l-15.7-54.4-15.8,54.4h-14.9Z"/>
            <path class="st0" d="M682.3,175.3h32.9v11.7h-45.1v-74.3h44.6v11.7h-32.4v19.3h29.7v11.6h-29.7v20.1h0Z"/>
            <path class="st0" d="M754,112.7c10.2,0,18.7,3.6,25.4,10.7,6.8,7.1,10.1,15.9,10.1,26.4s-3.4,19.2-10.1,26.4c-6.8,7.2-15.2,10.8-25.4,10.8h-29.2v-74.3h29.2ZM754,175.3c7,0,12.7-2.4,17.1-7.2,4.4-4.8,6.6-10.9,6.6-18.2s-2.2-13.5-6.6-18.3-10.1-7.2-17.1-7.2h-17v50.9h17Z"/>
            <path class="st0" d="M850.9,112.7l-25.9,44.8v29.5h-12.2v-29.5l-25.9-44.8h13.9l18.2,32.9,18-32.9h13.9,0Z"/>
          </g>
          <g>
            <path class="st0" d="M395.3,275.9c-5.1,4.8-11.7,7.2-20,7.2s-14.9-2.4-20-7.2c-5.1-4.8-7.6-11.2-7.6-19.3v-49h7.4v49c0,5.9,1.8,10.6,5.3,14.1,3.5,3.5,8.5,5.2,14.9,5.2s11.3-1.7,14.9-5.2c3.5-3.5,5.3-8.2,5.3-14.1v-49h7.4v49c0,8.1-2.5,14.5-7.6,19.3h0Z"/>
            <path class="st0" d="M461.2,207.6h7.4v74.3h-6.4l-41.4-60.5v60.5h-7.4v-74.3h6.5l41.3,60.3v-60.3h0Z"/>
            <path class="st0" d="M480.2,207.6h7.4v74.3h-7.4v-74.3h0Z"/>
            <path class="st0" d="M519.2,281.8l-27.4-74.3h8.1l23.1,64.3,23.1-64.3h8.1l-27.4,74.3h-7.6Z"/>
            <path class="st0" d="M565.8,274.8h36.1v7h-43.5v-74.3h43v7h-35.5v26.3h32.9v7h-32.9v27h0Z"/>
            <path class="st0" d="M654.8,281.8l-17.3-29.7h-20.9v29.7h-7.4v-74.3h29.7c6.2,0,11.4,2.2,15.8,6.5s6.5,9.6,6.5,15.8-1.5,9.5-4.5,13.4c-3,3.9-6.8,6.6-11.5,7.9l18.1,30.7h-8.5ZM616.6,214.6v30.6h22.3c4.1,0,7.6-1.5,10.5-4.5,2.9-3,4.3-6.6,4.3-10.8s-1.5-7.9-4.3-10.8c-2.9-3-6.4-4.5-10.5-4.5h-22.3Z"/>
            <path class="st0" d="M690.8,283.1c-6.8,0-12.6-1.6-17.5-4.8-4.8-3.2-8.2-7.7-10.1-13.3l6.4-3.7c1.3,4.6,3.8,8.2,7.4,10.8s8.2,3.9,13.9,3.9,9.8-1.2,12.9-3.7c3.1-2.4,4.6-5.7,4.6-9.7s-1.4-6.8-4.2-8.8c-2.8-2-7.5-4-14-6.1-7.7-2.6-12.8-4.6-15.3-6.1-5.7-3.4-8.5-8.3-8.5-14.8s2.2-11.3,6.6-14.9,9.8-5.5,16.2-5.5,10.8,1.5,15.1,4.5c4.2,3,7.4,6.8,9.4,11.5l-6.3,3.5c-3.4-8.2-9.5-12.3-18.2-12.3s-8.3,1.1-11.1,3.4c-2.8,2.3-4.2,5.4-4.2,9.4s1.3,6.4,3.8,8.3,6.8,3.7,12.6,5.6c2.7.9,4.6,1.6,5.8,2,1.2.4,2.9,1,5.1,1.9,2.2.9,3.9,1.7,4.9,2.3s2.3,1.6,3.9,2.8,2.6,2.3,3.3,3.5,1.3,2.6,1.8,4.2c.5,1.7.8,3.5.8,5.4,0,6.3-2.3,11.3-6.9,15.1-4.6,3.8-10.7,5.7-18.2,5.7h0Z"/>
            <path class="st0" d="M722.6,207.6h7.4v74.3h-7.4v-74.3h0Z"/>
            <path class="st0" d="M788.3,207.6v7h-22.8v67.3h-7.4v-67.3h-22.8v-7h53.1Z"/>
            <path class="st0" d="M847.1,207.6l-26.8,43.8v30.5h-7.4v-30.7l-26.7-43.6h8.4l22.2,36.4,22-36.4h8.4Z"/>
          </g>
        </g>
        <path class="st0" d="M492.5,2.8v53.5c0,8.6-6.9,15.5-15.5,15.5s-15.5-6.9-15.5-15.5V2.8h0s-20.9,0-20.9,0v54.9c0,45.8,72.4,45.3,72.4,0V2.8h-20.5s0,0,0,0Z"/>
      </g>
    </g>
  </g>
</svg>